<svg width="245" height="136" viewBox="0 0 245 136" fill="none" xmlns="http://www.w3.org/2000/svg">
<g opacity="0.9">
<path fill-rule="evenodd" clip-rule="evenodd" d="M205.086 27H191.918C187.716 27 186 25.4069 186 21.5133V12.4867C186 8.59275 187.716 7 191.918 7H205.086C209.284 7 211 8.59275 211 12.4867V21.5133C211 25.4069 209.284 27 205.086 27Z" fill="#EF4444"/>
<path fill-rule="evenodd" clip-rule="evenodd" d="M54.9318 122.128C23.3522 122.128 15.5 117.873 15.5 94.2181C15.5 72.7751 26.7662 68.5205 50.835 68.5205C56.2974 68.5205 63.1254 69.2012 66.8808 70.7329C66.8808 61.0325 64.3203 58.4797 52.542 58.4797C42.4707 58.4797 30.3509 58.9903 22.6694 59.1605V38.7385C30.3509 37.5472 45.0312 36.6963 53.3955 36.6963C86.6821 36.6963 94.0222 43.5036 94.0222 80.093C94.0222 116.682 92.8273 122.128 54.9318 122.128ZM54.5904 102.046C64.8324 102.046 68.4171 101.025 68.4171 94.2181C68.4171 87.9214 64.8324 86.5599 54.5904 86.5599C43.8363 86.5599 40.7637 87.9214 40.7637 94.2181C40.7637 101.025 43.8363 102.046 54.5904 102.046Z" fill="#EF4444"/>
<path fill-rule="evenodd" clip-rule="evenodd" d="M124.33 122.901C103.494 115.265 98.1038 103.682 103.96 87.7035L129.92 16.87L153.527 20.8685L132.326 90.6683C129.398 98.6578 130.923 101.936 147.592 108.045L140.389 127.699C137.008 127.003 132.665 125.956 124.33 122.901Z" fill="#EF4444"/>
<path fill-rule="evenodd" clip-rule="evenodd" d="M201.163 122.979C170.266 122.979 159 110.896 159 79.9227C159 48.7793 170.266 36.6963 201.163 36.6963C232.06 36.6963 243.326 48.7793 243.326 79.9227C243.326 110.896 232.06 122.979 201.163 122.979ZM201.163 99.4938C214.99 99.4938 218.233 95.5796 218.233 79.9227C218.233 64.0957 214.99 60.1815 201.163 60.1815C187.336 60.1815 184.093 64.0957 184.093 79.9227C184.093 95.5796 187.336 99.4938 201.163 99.4938Z" fill="#EF4444"/>
</g>
<path fill-rule="evenodd" clip-rule="evenodd" d="M207.086 27H193.918C189.716 27 188 25.4069 188 21.5133V12.4867C188 8.59275 189.716 7 193.918 7H207.086C211.284 7 213 8.59275 213 12.4867V21.5133C213 25.4069 211.284 27 207.086 27Z" fill="#FD5B5B"/>
<path fill-rule="evenodd" clip-rule="evenodd" d="M55.9318 119.128C24.3522 119.128 16.5 114.873 16.5 91.2181C16.5 69.7751 27.7662 65.5205 51.835 65.5205C57.2974 65.5205 64.1254 66.2012 67.8808 67.7329C67.8808 58.0325 65.3203 55.4797 53.542 55.4797C43.4707 55.4797 31.3509 55.9903 23.6694 56.1605V35.7385C31.3509 34.5472 46.0312 33.6963 54.3955 33.6963C87.6821 33.6963 95.0222 40.5036 95.0222 77.093C95.0222 113.682 93.8273 119.128 55.9318 119.128ZM55.5904 99.0465C65.8324 99.0465 69.4171 98.0254 69.4171 91.2181C69.4171 84.9214 65.8324 83.5599 55.5904 83.5599C44.8363 83.5599 41.7637 84.9214 41.7637 91.2181C41.7637 98.0254 44.8363 99.0465 55.5904 99.0465Z" fill="white"/>
<path fill-rule="evenodd" clip-rule="evenodd" d="M126.113 120.923C105.278 113.287 101.257 101.402 107.113 85.4229L132.612 15.2675L157.113 21.9231L134.939 88.1152C132.011 96.1048 133.536 99.3825 150.205 105.492L143.002 125.146C139.621 124.45 134.448 123.978 126.113 120.923Z" fill="white"/>
<path fill-rule="evenodd" clip-rule="evenodd" d="M202.163 119.979C171.266 119.979 160 107.896 160 76.9227C160 45.7793 171.266 33.6963 202.163 33.6963C233.06 33.6963 244.326 45.7793 244.326 76.9227C244.326 107.896 233.06 119.979 202.163 119.979ZM202.163 96.4938C215.99 96.4938 219.233 92.5796 219.233 76.9227C219.233 61.0957 215.99 57.1815 202.163 57.1815C188.336 57.1815 185.093 61.0957 185.093 76.9227C185.093 92.5796 188.336 96.4938 202.163 96.4938Z" fill="white"/>
</svg>
