<svg width="236" height="121" viewBox="0 0 236 121" fill="none" xmlns="http://www.w3.org/2000/svg">
<path d="M201.086 28H187.918C183.716 28 182 26.4069 182 22.5133V13.4867C182 9.59275 183.716 8 187.918 8H201.086C205.284 8 207 9.59275 207 13.4867V22.5133C207 26.4069 205.284 28 201.086 28Z" fill="#EF4444"/>
<path d="M201.086 28H187.918C183.716 28 182 26.4069 182 22.5133V13.4867C182 9.59275 183.716 8 187.918 8H201.086C205.284 8 207 9.59275 207 13.4867V22.5133C207 26.4069 205.284 28 201.086 28Z" fill="#EF4444"/>
<path d="M201.086 28H187.918C183.716 28 182 26.4069 182 22.5133V13.4867C182 9.59275 183.716 8 187.918 8H201.086C205.284 8 207 9.59275 207 13.4867V22.5133C207 26.4069 205.284 28 201.086 28Z" fill="#EF4444"/>
<path d="M39.4318 121C7.85222 121 0 116.745 0 93.09C0 71.647 11.2662 67.3924 35.335 67.3924C40.7974 67.3924 47.6254 68.0731 51.3808 69.6048C51.3808 59.9044 48.8203 57.3516 37.042 57.3516C26.9707 57.3516 14.8509 57.8622 7.16942 58.0324V37.6104C14.8509 36.4191 29.5312 35.5682 37.8955 35.5682C71.1821 35.5682 78.5222 42.3755 78.5222 78.9648C78.5222 115.554 77.3273 121 39.4318 121ZM39.0904 100.918C49.3324 100.918 52.9171 99.8973 52.9171 93.09C52.9171 86.7933 49.3324 85.4318 39.0904 85.4318C28.3363 85.4318 25.2637 86.7933 25.2637 93.09C25.2637 99.8973 28.3363 100.918 39.0904 100.918Z" fill="white"/>
<path d="M127.604 119.979C105.413 119.979 96.3657 110.959 96.3657 93.9409V0H124.019V86.9634C124.019 95.4726 126.58 98.0253 144.333 98.0253V118.958C140.919 119.468 136.48 119.979 127.604 119.979Z" fill="white"/>
<path d="M193.837 120.83C162.94 120.83 151.674 108.747 151.674 77.7736C151.674 46.6301 162.94 34.5471 193.837 34.5471C224.734 34.5471 236 46.6301 236 77.7736C236 108.747 224.734 120.83 193.837 120.83ZM193.837 97.3446C207.664 97.3446 210.907 93.4304 210.907 77.7736C210.907 61.9466 207.664 58.0324 193.837 58.0324C180.01 58.0324 176.767 61.9466 176.767 77.7736C176.767 93.4304 180.01 97.3446 193.837 97.3446Z" fill="white"/>
</svg>
