<svg width="500" height="500" viewBox="0 0 500 500" fill="none" xmlns="http://www.w3.org/2000/svg">
<rect width="500" height="500" rx="100" fill="#111111"/>
<path fill-rule="evenodd" clip-rule="evenodd" d="M398.49 176.333H372.479C364.179 176.333 360.789 173.186 360.789 165.495V147.665C360.789 139.973 364.179 136.827 372.479 136.827H398.49C406.782 136.827 410.172 139.973 410.172 147.665V165.495C410.172 173.186 406.782 176.333 398.49 176.333Z" fill="#EF4444"/>
<path fill-rule="evenodd" clip-rule="evenodd" d="M101.89 364.24C39.5104 364.24 24 355.835 24 309.109C24 266.753 46.2541 258.349 93.7972 258.349C104.587 258.349 118.074 259.693 125.492 262.719C125.492 243.558 120.435 238.515 97.169 238.515C77.2752 238.515 53.335 239.524 38.1617 239.86V199.52C53.335 197.167 82.3329 195.486 98.8549 195.486C164.606 195.486 179.105 208.933 179.105 281.208C179.105 353.482 176.744 364.24 101.89 364.24ZM101.215 324.572C121.446 324.572 128.527 322.555 128.527 309.109C128.527 296.671 121.446 293.982 101.215 293.982C79.9726 293.982 73.9033 296.671 73.9033 309.109C73.9033 322.555 79.9726 324.572 101.215 324.572Z" fill="#EF4444"/>
<path fill-rule="evenodd" clip-rule="evenodd" d="M238.972 365.766C197.815 350.682 187.167 327.803 198.735 296.241L250.014 156.323L296.645 164.221L254.767 302.097C248.983 317.879 251.996 324.353 284.921 336.42L270.693 375.243C264.014 373.869 255.436 371.8 238.972 365.766Z" fill="#EF4444"/>
<path fill-rule="evenodd" clip-rule="evenodd" d="M390.74 365.921C329.709 365.921 307.455 342.053 307.455 280.871C307.455 219.354 329.709 195.486 390.74 195.486C451.77 195.486 474.024 219.354 474.024 280.871C474.024 342.053 451.77 365.921 390.74 365.921ZM390.74 319.53C418.052 319.53 424.458 311.798 424.458 280.871C424.458 249.608 418.052 241.877 390.74 241.877C363.427 241.877 357.021 249.608 357.021 280.871C357.021 311.798 363.427 319.53 390.74 319.53Z" fill="#EF4444"/>
<path fill-rule="evenodd" clip-rule="evenodd" d="M402.441 176.333H376.43C368.13 176.333 364.74 173.186 364.74 165.495V147.665C364.74 139.973 368.13 136.827 376.43 136.827H402.441C410.733 136.827 414.123 139.973 414.123 147.665V165.495C414.123 173.186 410.733 176.333 402.441 176.333Z" fill="#FD5B5B"/>
<path fill-rule="evenodd" clip-rule="evenodd" d="M103.866 358.313C41.487 358.313 25.9766 349.908 25.9766 303.183C25.9766 260.826 48.2307 252.422 95.7737 252.422C106.564 252.422 120.051 253.767 127.469 256.793C127.469 237.631 122.411 232.589 99.1456 232.589C79.2517 232.589 55.3115 233.597 40.1383 233.934V193.594C55.3115 191.241 84.3095 189.56 100.831 189.56C166.582 189.56 181.081 203.007 181.081 275.281C181.081 347.556 178.721 358.313 103.866 358.313ZM103.192 318.646C123.423 318.646 130.504 316.629 130.504 303.183C130.504 290.745 123.423 288.056 103.192 288.056C81.9492 288.056 75.8799 290.745 75.8799 303.183C75.8799 316.629 81.9492 318.646 103.192 318.646Z" fill="white"/>
<path fill-rule="evenodd" clip-rule="evenodd" d="M242.495 361.859C201.339 346.775 193.397 323.298 204.965 291.735L255.333 153.158L303.73 166.305L259.929 297.054C254.145 312.835 257.158 319.31 290.084 331.377L275.855 370.2C269.177 368.826 258.959 367.893 242.495 361.859Z" fill="white"/>
<path fill-rule="evenodd" clip-rule="evenodd" d="M392.716 359.994C331.685 359.994 309.432 336.127 309.432 274.945C309.432 213.428 331.685 189.56 392.716 189.56C453.747 189.56 476.001 213.428 476.001 274.945C476.001 336.127 453.747 359.994 392.716 359.994ZM392.716 313.604C420.029 313.604 426.434 305.872 426.434 274.945C426.434 243.682 420.029 235.95 392.716 235.95C365.404 235.95 358.998 243.682 358.998 274.945C358.998 305.872 365.404 313.604 392.716 313.604Z" fill="white"/>
</svg>
