<svg width="383" height="180" viewBox="0 0 383 180" fill="none" xmlns="http://www.w3.org/2000/svg">
<g opacity="0.9">
<path fill-rule="evenodd" clip-rule="evenodd" d="M189.586 27H176.418C172.216 27 170.5 25.4069 170.5 21.5133V12.4867C170.5 8.59275 172.216 7 176.418 7H189.586C193.784 7 195.5 8.59275 195.5 12.4867V21.5133C195.5 25.4069 193.784 27 189.586 27Z" fill="#EF4444"/>
<path fill-rule="evenodd" clip-rule="evenodd" d="M39.4318 122.128C7.8522 122.128 0 117.873 0 94.2181C0 72.7751 11.2662 68.5205 35.335 68.5205C40.7974 68.5205 47.6254 69.2012 51.3808 70.7329C51.3808 61.0325 48.8203 58.4797 37.042 58.4797C26.9707 58.4797 14.8509 58.9903 7.1694 59.1605V38.7385C14.8509 37.5472 29.5312 36.6963 37.8955 36.6963C71.1821 36.6963 78.5222 43.5036 78.5222 80.093C78.5222 116.682 77.3273 122.128 39.4318 122.128ZM39.0904 102.046C49.3324 102.046 52.9171 101.025 52.9171 94.2181C52.9171 87.9214 49.3324 86.5599 39.0904 86.5599C28.3363 86.5599 25.2637 87.9214 25.2637 94.2181C25.2637 101.025 28.3363 102.046 39.0904 102.046Z" fill="#EF4444"/>
<path fill-rule="evenodd" clip-rule="evenodd" d="M108.83 122.901C87.9943 115.265 82.6038 103.682 88.46 87.7035L114.42 16.87L138.027 20.8685L116.826 90.6683C113.898 98.6578 115.423 101.936 132.092 108.045L124.889 127.699C121.508 127.003 117.165 125.956 108.83 122.901Z" fill="#EF4444"/>
<path fill-rule="evenodd" clip-rule="evenodd" d="M185.663 122.979C154.766 122.979 143.5 110.896 143.5 79.9227C143.5 48.7793 154.766 36.6963 185.663 36.6963C216.56 36.6963 227.826 48.7793 227.826 79.9227C227.826 110.896 216.56 122.979 185.663 122.979ZM185.663 99.4938C199.49 99.4938 202.733 95.5796 202.733 79.9227C202.733 64.0957 199.49 60.1815 185.663 60.1815C171.836 60.1815 168.593 64.0957 168.593 79.9227C168.593 95.5796 171.836 99.4938 185.663 99.4938Z" fill="#EF4444"/>
</g>
<path fill-rule="evenodd" clip-rule="evenodd" d="M191.586 27H178.418C174.216 27 172.5 25.4069 172.5 21.5133V12.4867C172.5 8.59275 174.216 7 178.418 7H191.586C195.784 7 197.5 8.59275 197.5 12.4867V21.5133C197.5 25.4069 195.784 27 191.586 27Z" fill="#FD5B5B"/>
<path fill-rule="evenodd" clip-rule="evenodd" d="M40.4318 119.128C8.8522 119.128 1 114.873 1 91.2181C1 69.7751 12.2662 65.5205 36.335 65.5205C41.7974 65.5205 48.6254 66.2012 52.3808 67.7329C52.3808 58.0325 49.8203 55.4797 38.042 55.4797C27.9707 55.4797 15.8509 55.9903 8.1694 56.1605V35.7385C15.8509 34.5472 30.5312 33.6963 38.8955 33.6963C72.1821 33.6963 79.5222 40.5036 79.5222 77.093C79.5222 113.682 78.3273 119.128 40.4318 119.128ZM40.0904 99.0465C50.3324 99.0465 53.9171 98.0254 53.9171 91.2181C53.9171 84.9214 50.3324 83.5599 40.0904 83.5599C29.3363 83.5599 26.2637 84.9214 26.2637 91.2181C26.2637 98.0254 29.3363 99.0465 40.0904 99.0465Z" fill="white"/>
<path fill-rule="evenodd" clip-rule="evenodd" d="M110.613 120.923C89.7775 113.287 85.7571 101.402 91.6133 85.4229L117.112 15.2675L141.613 21.9231L119.439 88.1152C116.511 96.1048 118.036 99.3825 134.705 105.492L127.502 125.146C124.121 124.45 118.948 123.978 110.613 120.923Z" fill="white"/>
<path fill-rule="evenodd" clip-rule="evenodd" d="M186.663 119.979C155.766 119.979 144.5 107.896 144.5 76.9227C144.5 45.7793 155.766 33.6963 186.663 33.6963C217.56 33.6963 228.826 45.7793 228.826 76.9227C228.826 107.896 217.56 119.979 186.663 119.979ZM186.663 96.4938C200.49 96.4938 203.733 92.5796 203.733 76.9227C203.733 61.0957 200.49 57.1815 186.663 57.1815C172.836 57.1815 169.593 61.0957 169.593 76.9227C169.593 92.5796 172.836 96.4938 186.663 96.4938Z" fill="white"/>
<path d="M173.882 150.723C183.285 150.723 187.438 153.725 187.438 165.39C187.438 176.766 184.208 180 173.19 180C162.057 180 159 176.939 159 169.028V139H168.345V151.531C170.018 151.011 171.863 150.723 173.882 150.723ZM173.19 171.858C178.093 171.858 178.901 171.049 178.901 165.39C178.901 159.731 177.055 158.865 173.017 158.865C168.864 158.865 167.826 159.904 167.826 163.254V167.354C167.826 171.107 168.402 171.858 173.19 171.858Z" fill="#DA4040"/>
<path d="M205.117 180C194.676 180 191.503 176.535 191.503 168.797V151.3H200.848V168.508C200.848 170.761 201.425 171.915 205.117 171.915C208.809 171.915 209.385 170.761 209.385 168.508V151.3H218.73V168.797C218.73 176.535 215.558 180 205.117 180Z" fill="#DA4040"/>
<path d="M234.854 179.711C230.586 179.711 224.875 179.192 223.087 178.787V171.685C226.432 171.858 229.951 172.031 233.297 172.031C236.988 172.031 237.796 171.742 237.796 170.992C237.796 170.356 236.642 170.125 233.124 168.393L229.374 166.545C225.509 164.639 222.741 162.849 222.741 158.807C222.741 152.744 228.105 151.011 235.95 151.011C239.007 151.011 243.853 151.531 245.641 151.935V159.038C242.988 158.865 240.161 158.692 237.508 158.692C233.758 158.692 232.893 158.865 232.893 159.615C232.893 160.366 234.104 160.77 236.758 162.041L240.565 163.889C245.122 166.083 247.775 167.815 247.775 171.742C247.775 177.748 242.411 179.711 234.854 179.711Z" fill="#DA4040"/>
<path d="M259.583 147.662H253.93C252.546 147.662 251.911 147.027 251.911 145.641V141.714C251.911 140.328 252.546 139.693 253.93 139.693H259.583C260.968 139.693 261.602 140.328 261.602 141.714V145.641C261.602 147.027 260.968 147.662 259.583 147.662ZM261.429 179.423H252.084V151.3H261.429V179.423Z" fill="#DA4040"/>
<path d="M276.84 179.423H267.495V162.503C267.495 154.072 271.071 150.723 281.397 150.723C291.722 150.723 295.299 154.072 295.299 162.503V179.423H285.954V162.214C285.954 159.731 285.089 158.807 281.397 158.807C277.705 158.807 276.84 159.731 276.84 162.214V179.423Z" fill="#DA4040"/>
<path d="M315.568 179.711C302.3 179.711 299.243 176.651 299.243 164.986C299.243 154.014 302.531 150.723 313.26 150.723C323.701 150.723 326.585 153.61 326.585 160.424C326.585 167.354 324.855 168.913 315.683 168.913C311.011 168.913 310.088 168.566 308.415 168.104C308.415 171.28 309.453 172.32 315.568 172.32C317.76 172.32 322.432 172.204 325.893 172.089V179.018C323.067 179.48 318.337 179.711 315.568 179.711ZM313.376 162.792C317.875 162.792 318.221 162.445 318.221 160.135C318.221 158.172 317.587 157.537 313.376 157.537C309.222 157.537 308.53 158.23 308.53 160.135C308.53 162.445 308.876 162.792 313.376 162.792Z" fill="#DA4040"/>
<path d="M341.49 179.711C337.222 179.711 331.511 179.192 329.723 178.787V171.685C333.068 171.858 336.587 172.031 339.933 172.031C343.625 172.031 344.432 171.742 344.432 170.992C344.432 170.356 343.278 170.125 339.76 168.393L336.01 166.545C332.145 164.639 329.377 162.849 329.377 158.807C329.377 152.744 334.741 151.011 342.586 151.011C345.643 151.011 350.489 151.531 352.277 151.935V159.038C349.624 158.865 346.797 158.692 344.144 158.692C340.394 158.692 339.529 158.865 339.529 159.615C339.529 160.366 340.74 160.77 343.394 162.041L347.201 163.889C351.758 166.083 354.411 167.815 354.411 171.742C354.411 177.748 349.047 179.711 341.49 179.711Z" fill="#DA4040"/>
<path d="M368.079 179.711C363.81 179.711 358.1 179.192 356.311 178.787V171.685C359.657 171.858 363.176 172.031 366.521 172.031C370.213 172.031 371.021 171.742 371.021 170.992C371.021 170.356 369.867 170.125 366.348 168.393L362.599 166.545C358.734 164.639 355.965 162.849 355.965 158.807C355.965 152.744 361.33 151.011 369.175 151.011C372.232 151.011 377.078 151.531 378.866 151.935V159.038C376.212 158.865 373.386 158.692 370.732 158.692C366.983 158.692 366.118 158.865 366.118 159.615C366.118 160.366 367.329 160.77 369.982 162.041L373.79 163.889C378.347 166.083 381 167.815 381 171.742C381 177.748 375.635 179.711 368.079 179.711Z" fill="#DA4040"/>
<path d="M175.882 148.723C185.285 148.723 189.438 151.725 189.438 163.39C189.438 174.766 186.208 178 175.19 178C164.057 178 161 174.939 161 167.028V137H170.345V149.531C172.018 149.011 173.863 148.723 175.882 148.723ZM175.19 169.858C180.093 169.858 180.901 169.049 180.901 163.39C180.901 157.731 179.055 156.865 175.017 156.865C170.864 156.865 169.826 157.904 169.826 161.254V165.354C169.826 169.107 170.402 169.858 175.19 169.858Z" fill="white"/>
<path d="M207.117 178C196.676 178 193.503 174.535 193.503 166.797V149.3H202.848V166.508C202.848 168.761 203.425 169.915 207.117 169.915C210.809 169.915 211.385 168.761 211.385 166.508V149.3H220.73V166.797C220.73 174.535 217.558 178 207.117 178Z" fill="white"/>
<path d="M236.854 177.711C232.586 177.711 226.875 177.192 225.087 176.787V169.685C228.432 169.858 231.951 170.031 235.297 170.031C238.988 170.031 239.796 169.742 239.796 168.992C239.796 168.356 238.642 168.125 235.124 166.393L231.374 164.545C227.509 162.639 224.741 160.849 224.741 156.807C224.741 150.744 230.105 149.011 237.95 149.011C241.007 149.011 245.853 149.531 247.641 149.935V157.038C244.988 156.865 242.161 156.692 239.508 156.692C235.758 156.692 234.893 156.865 234.893 157.615C234.893 158.366 236.104 158.77 238.758 160.041L242.565 161.889C247.122 164.083 249.775 165.815 249.775 169.742C249.775 175.748 244.411 177.711 236.854 177.711Z" fill="white"/>
<path d="M261.583 145.662H255.93C254.546 145.662 253.911 145.027 253.911 143.641V139.714C253.911 138.328 254.546 137.693 255.93 137.693H261.583C262.968 137.693 263.602 138.328 263.602 139.714V143.641C263.602 145.027 262.968 145.662 261.583 145.662ZM263.429 177.423H254.084V149.3H263.429V177.423Z" fill="white"/>
<path d="M278.84 177.423H269.495V160.503C269.495 152.072 273.071 148.723 283.397 148.723C293.722 148.723 297.299 152.072 297.299 160.503V177.423H287.954V160.214C287.954 157.731 287.089 156.807 283.397 156.807C279.705 156.807 278.84 157.731 278.84 160.214V177.423Z" fill="white"/>
<path d="M317.568 177.711C304.3 177.711 301.243 174.651 301.243 162.986C301.243 152.014 304.531 148.723 315.26 148.723C325.701 148.723 328.585 151.61 328.585 158.424C328.585 165.354 326.855 166.913 317.683 166.913C313.011 166.913 312.088 166.566 310.415 166.104C310.415 169.28 311.453 170.32 317.568 170.32C319.76 170.32 324.432 170.204 327.893 170.089V177.018C325.067 177.48 320.337 177.711 317.568 177.711ZM315.376 160.792C319.875 160.792 320.221 160.445 320.221 158.135C320.221 156.172 319.587 155.537 315.376 155.537C311.222 155.537 310.53 156.23 310.53 158.135C310.53 160.445 310.876 160.792 315.376 160.792Z" fill="white"/>
<path d="M343.49 177.711C339.222 177.711 333.511 177.192 331.723 176.787V169.685C335.068 169.858 338.587 170.031 341.933 170.031C345.625 170.031 346.432 169.742 346.432 168.992C346.432 168.356 345.278 168.125 341.76 166.393L338.01 164.545C334.145 162.639 331.377 160.849 331.377 156.807C331.377 150.744 336.741 149.011 344.586 149.011C347.643 149.011 352.489 149.531 354.277 149.935V157.038C351.624 156.865 348.797 156.692 346.144 156.692C342.394 156.692 341.529 156.865 341.529 157.615C341.529 158.366 342.74 158.77 345.394 160.041L349.201 161.889C353.758 164.083 356.411 165.815 356.411 169.742C356.411 175.748 351.047 177.711 343.49 177.711Z" fill="white"/>
<path d="M370.079 177.711C365.81 177.711 360.1 177.192 358.311 176.787V169.685C361.657 169.858 365.176 170.031 368.521 170.031C372.213 170.031 373.021 169.742 373.021 168.992C373.021 168.356 371.867 168.125 368.348 166.393L364.599 164.545C360.734 162.639 357.965 160.849 357.965 156.807C357.965 150.744 363.33 149.011 371.175 149.011C374.232 149.011 379.078 149.531 380.866 149.935V157.038C378.212 156.865 375.386 156.692 372.732 156.692C368.983 156.692 368.118 156.865 368.118 157.615C368.118 158.366 369.329 158.77 371.982 160.041L375.79 161.889C380.347 164.083 383 165.815 383 169.742C383 175.748 377.635 177.711 370.079 177.711Z" fill="white"/>
</svg>
